# xmcd CD database file
#
# Track frame offsets:
#	150
#	15800
#	35340
#	47538
#	60832
#	72189
#	87171
#	97707
#	110700
#	126453
#	138706
#	152976
#
# Disc length: 2292 seconds
#
# Revision: 0
# Processed by: cddbd v1.5.2PL0 Copyright (c) Steve Scherf et al.
# Submitted via: CDex 1.51
#
DISCID=9308f20c
DTITLE=Davidson Brothers - Davidson Brothers
DYEAR=1900
DGENRE=Country
TTITLE0=Davidson Brothers - City Life
TTITLE1=Davidson Brothers - Long Distance Love Affair
TTITLE2=Davidson Brothers - Fresh Cut Grass
TTITLE3=Davidson Brothers - Circle Of Lies
TTITLE4=Davidson Brothers - Just To Get To You
TTITLE5=Davidson Brothers - Tipsy Gypsy
TTITLE6=Davidson Brothers - Blue Mountain Home
TTITLE7=Davidson Brothers - It's Not Makin' Love
TTITLE8=Davidson Brothers - Stayin' And Gone
TTITLE9=Davidson Brothers - Left Hand Drive
TTITLE10=Davidson Brothers - Operator Man
TTITLE11=Davidson Brothers - I Miss The Sound Of Rain
EXTD=
EXTT0=
EXTT1=
EXTT2=
EXTT3=
EXTT4=
EXTT5=
EXTT6=
EXTT7=
EXTT8=
EXTT9=
EXTT10=
EXTT11=
PLAYORDER=
